<svg xmlns="http://www.w3.org/2000/svg" width="1600" height="900" viewBox="0 0 1600 900" fill="none">
  <defs>
    <linearGradient id="sky" x1="0" y1="0" x2="0" y2="1">
      <stop offset="0%" stop-color="#1e3a8a"/>
      <stop offset="100%" stop-color="#0f172a"/>
    </linearGradient>
    <linearGradient id="sunset" x1="0" y1="0" x2="1" y2="1">
      <stop offset="0%" stop-color="#f59e0b" stop-opacity="0.6"/>
      <stop offset="100%" stop-color="#f97316" stop-opacity="0.2"/>
    </linearGradient>
  </defs>
  <rect width="1600" height="900" fill="url(#sky)"/>
  <rect y="420" width="1600" height="480" fill="#111827"/>
  <rect y="350" width="1600" height="200" fill="#1f2937"/>
  <rect x="160" y="270" width="420" height="280" fill="#0f172a" stroke="#1f2937" stroke-width="6"/>
  <rect x="210" y="320" width="120" height="90" fill="#1e293b"/>
  <rect x="360" y="320" width="160" height="90" fill="#1e293b"/>
  <rect x="700" y="230" width="520" height="320" fill="#0f172a" stroke="#1f2937" stroke-width="6"/>
  <rect x="760" y="300" width="120" height="100" fill="#1e293b"/>
  <rect x="930" y="300" width="200" height="100" fill="#1e293b"/>
  <rect x="100" y="560" width="1400" height="120" fill="#0b1120"/>
  <circle cx="1350" cy="180" r="140" fill="url(#sunset)"/>
  <path d="M0 620C200 560 360 560 520 620C680 680 840 700 1020 660C1200 620 1340 580 1600 600V900H0V620Z" fill="#0b1120"/>
</svg>
